<?xml version="1.0" encoding="utf-8"?>
<!-- Generator: Adobe Illustrator 16.0.0, SVG Export Plug-In . SVG Version: 6.00 Build 0)  -->
<!DOCTYPE svg PUBLIC "-//W3C//DTD SVG 1.1//EN" "http://www.w3.org/Graphics/SVG/1.1/DTD/svg11.dtd">
<svg version="1.1" id="Layer_1" xmlns="http://www.w3.org/2000/svg" xmlns:xlink="http://www.w3.org/1999/xlink" x="0px" y="0px"
	 width="60.004px" height="60.002px" viewBox="0 0 60.004 60.002" enable-background="new 0 0 60.004 60.002" xml:space="preserve">
<g>
	<path fill="#FFFFFF" d="M30.002-0.002C13.432-0.002,0,13.429,0,30c0,16.571,13.432,30.003,30.002,30.003
		C46.57,60.002,60.004,46.569,60.004,30C60.004,13.43,46.57-0.002,30.002-0.002z M30.002,57.601C14.781,57.601,2.4,45.22,2.4,30
		c0-15.221,12.381-27.603,27.602-27.603c15.221,0,27.602,12.382,27.602,27.603C57.604,45.22,45.225,57.601,30.002,57.601z"/>
	<polygon fill="#FFFFFF" points="22.502,42.601 44.104,30 22.502,17.398 	"/>
</g>
</svg>
