<?xml version="1.0" encoding="utf-8"?>
<!-- Generator: Adobe Illustrator 16.0.0, SVG Export Plug-In . SVG Version: 6.00 Build 0)  -->
<!DOCTYPE svg PUBLIC "-//W3C//DTD SVG 1.1//EN" "http://www.w3.org/Graphics/SVG/1.1/DTD/svg11.dtd">
<svg version="1.1" id="Layer_1" xmlns="http://www.w3.org/2000/svg" xmlns:xlink="http://www.w3.org/1999/xlink" x="0px" y="0px"
	 width="23.744px" height="23.662px" viewBox="0 0 23.744 23.662" enable-background="new 0 0 23.744 23.662" xml:space="preserve">
<g>
	<g>
		<path fill="#020202" d="M20.589,19.129l-6.062-6.179c0.849-1.104,1.356-2.492,1.356-3.997c0-3.586-2.867-6.504-6.392-6.504
			C5.967,2.449,3.1,5.367,3.1,8.953c0,3.585,2.867,6.503,6.393,6.503c1.382,0,2.662-0.449,3.709-1.213l6.072,6.189
			C19.454,20.617,20.947,19.494,20.589,19.129z M9.492,13.806c-2.619,0-4.75-2.178-4.75-4.853c0-2.677,2.131-4.854,4.75-4.854
			s4.749,2.177,4.749,4.854C14.241,11.628,12.111,13.806,9.492,13.806z"/>
	</g>
</g>
</svg>
