<?xml version="1.0" encoding="utf-8"?>
<!-- Generator: Adobe Illustrator 16.0.0, SVG Export Plug-In . SVG Version: 6.00 Build 0)  -->
<!DOCTYPE svg PUBLIC "-//W3C//DTD SVG 1.1//EN" "http://www.w3.org/Graphics/SVG/1.1/DTD/svg11.dtd">
<svg version="1.1" id="Layer_1" xmlns="http://www.w3.org/2000/svg" xmlns:xlink="http://www.w3.org/1999/xlink" x="0px" y="0px"
	 width="21.995px" height="15.58px" viewBox="0 0 21.995 15.58" enable-background="new 0 0 21.995 15.58" xml:space="preserve">
<g>
	<g>
		<path fill="#FFFFFF" d="M21.775,3.361c0,0-0.215-1.527-0.874-2.199c-0.837-0.883-1.774-0.887-2.204-0.939
			C15.619,0,11.002,0,11.002,0h-0.009c0,0-4.617,0-7.695,0.224C2.868,0.276,1.931,0.28,1.094,1.163
			C0.435,1.834,0.22,3.361,0.22,3.361S0,5.154,0,6.946v1.681c0,1.793,0.22,3.586,0.22,3.586s0.215,1.526,0.874,2.198
			c0.837,0.882,1.936,0.854,2.425,0.946c1.76,0.171,7.479,0.223,7.479,0.223s4.622-0.006,7.7-0.23
			c0.43-0.052,1.367-0.057,2.204-0.938c0.659-0.672,0.874-2.198,0.874-2.198s0.22-1.793,0.22-3.586V6.946
			C21.995,5.154,21.775,3.361,21.775,3.361z M8.727,10.664L8.726,4.439l5.943,3.123L8.727,10.664z"/>
	</g>
</g>
</svg>
