<?xml version="1.0" encoding="utf-8"?>
<!-- Generator: Adobe Illustrator 16.0.0, SVG Export Plug-In . SVG Version: 6.00 Build 0)  -->
<!DOCTYPE svg PUBLIC "-//W3C//DTD SVG 1.1//EN" "http://www.w3.org/Graphics/SVG/1.1/DTD/svg11.dtd">
<svg version="1.1" id="Layer_1" xmlns="http://www.w3.org/2000/svg" xmlns:xlink="http://www.w3.org/1999/xlink" x="0px" y="0px"
	 width="16px" height="16px" viewBox="0 0 16 16" enable-background="new 0 0 16 16" xml:space="preserve">
<path fill="#FFFFFF" d="M14,16h-4V9h2l1-2h-3V6c0-0.618,0.065-1,1-1h2l-0.002-2.001H9.987C8.09,2.998,8,4.722,8,6v1H6v2h2v7H2
	c-1.104,0-2-0.896-2-2V2c0-1.104,0.896-2,2-2h12c1.104,0,2,0.896,2,2v12C16,15.104,15.104,16,14,16z"/>
</svg>
