<?xml version="1.0" encoding="utf-8"?>
<!-- Generator: Adobe Illustrator 16.0.0, SVG Export Plug-In . SVG Version: 6.00 Build 0)  -->
<!DOCTYPE svg PUBLIC "-//W3C//DTD SVG 1.1//EN" "http://www.w3.org/Graphics/SVG/1.1/DTD/svg11.dtd">
<svg version="1.1" id="Layer_1" xmlns="http://www.w3.org/2000/svg" xmlns:xlink="http://www.w3.org/1999/xlink" x="0px" y="0px"
	 width="16.088px" height="16px" viewBox="0 0 16.088 16" enable-background="new 0 0 16.088 16" xml:space="preserve">
<g>
	<path fill="#FFFFFF" d="M8.088,1.441c2.136,0,2.39,0.008,3.233,0.046c0.779,0.036,1.203,0.166,1.484,0.275
		c0.373,0.146,0.641,0.319,0.92,0.599c0.279,0.28,0.453,0.546,0.599,0.92c0.11,0.282,0.239,0.706,0.276,1.485
		C14.64,5.611,14.646,5.864,14.646,8c0,2.137-0.008,2.389-0.045,3.232c-0.037,0.779-0.166,1.203-0.276,1.484
		c-0.146,0.374-0.318,0.641-0.599,0.92c-0.279,0.28-0.547,0.454-0.92,0.6c-0.281,0.109-0.705,0.24-1.484,0.275
		c-0.844,0.038-1.098,0.047-3.233,0.047s-2.389-0.009-3.233-0.047c-0.78-0.037-1.204-0.166-1.485-0.275
		c-0.374-0.146-0.64-0.318-0.92-0.6c-0.28-0.279-0.453-0.546-0.599-0.92c-0.109-0.281-0.24-0.705-0.275-1.484
		C1.538,10.389,1.53,10.137,1.53,8c0-2.136,0.008-2.389,0.046-3.233c0.036-0.78,0.166-1.204,0.275-1.485
		c0.146-0.374,0.319-0.64,0.599-0.92c0.28-0.28,0.546-0.453,0.92-0.599c0.282-0.109,0.706-0.24,1.485-0.275
		C5.699,1.449,5.952,1.441,8.088,1.441 M8.088,0C5.916,0,5.643,0.009,4.79,0.048C3.938,0.087,3.357,0.222,2.848,0.42
		C2.322,0.624,1.875,0.898,1.431,1.343C0.986,1.787,0.713,2.233,0.508,2.76C0.311,3.269,0.175,3.85,0.136,4.702
		C0.098,5.555,0.088,5.827,0.088,8c0,2.172,0.009,2.445,0.048,3.298C0.175,12.15,0.31,12.73,0.508,13.24
		c0.205,0.525,0.478,0.972,0.923,1.416c0.444,0.445,0.891,0.719,1.417,0.924c0.509,0.197,1.091,0.333,1.942,0.372
		C5.643,15.991,5.916,16,8.088,16s2.445-0.009,3.298-0.048c0.852-0.039,1.434-0.175,1.941-0.372
		c0.525-0.205,0.973-0.479,1.417-0.924c0.444-0.444,0.719-0.891,0.923-1.416c0.198-0.51,0.333-1.09,0.372-1.942
		c0.039-0.854,0.048-1.126,0.048-3.298c0-2.173-0.009-2.445-0.048-3.298C16,3.85,15.865,3.269,15.667,2.76
		c-0.204-0.526-0.479-0.973-0.923-1.417C14.3,0.898,13.853,0.624,13.327,0.42c-0.51-0.198-1.09-0.333-1.941-0.372
		C10.533,0.009,10.261,0,8.088,0L8.088,0L8.088,0z"/>
	<path fill="#FFFFFF" d="M8.088,3.892C5.819,3.892,3.98,5.731,3.98,8c0,2.27,1.839,4.107,4.108,4.107
		c2.269,0,4.108-1.838,4.108-4.107C12.196,5.731,10.356,3.892,8.088,3.892L8.088,3.892z M8.088,10.667
		c-1.473,0-2.667-1.194-2.667-2.667c0-1.473,1.194-2.667,2.667-2.667c1.474,0,2.667,1.194,2.667,2.667
		C10.755,9.473,9.562,10.667,8.088,10.667L8.088,10.667z"/>
	<path fill="#FFFFFF" d="M13.317,3.729c0,0.53-0.43,0.96-0.959,0.96c-0.53,0-0.961-0.43-0.961-0.96c0-0.53,0.431-0.96,0.961-0.96
		C12.888,2.769,13.317,3.199,13.317,3.729L13.317,3.729z"/>
</g>
</svg>
