<?xml version="1.0" encoding="utf-8"?>
<!-- Generator: Adobe Illustrator 16.0.0, SVG Export Plug-In . SVG Version: 6.00 Build 0)  -->
<!DOCTYPE svg PUBLIC "-//W3C//DTD SVG 1.1//EN" "http://www.w3.org/Graphics/SVG/1.1/DTD/svg11.dtd">
<svg version="1.1" id="Layer_1" xmlns="http://www.w3.org/2000/svg" xmlns:xlink="http://www.w3.org/1999/xlink" x="0px" y="0px"
	 width="16px" height="16px" viewBox="0 0 16 16" enable-background="new 0 0 16 16" xml:space="preserve">
<path fill="#FFFFFF" d="M8,0C3.582,0,0,3.581,0,8c0,3.275,1.97,6.089,4.789,7.327c-0.023-0.559-0.004-1.229,0.139-1.837
	c0.154-0.65,1.029-4.36,1.029-4.36S5.702,8.62,5.702,7.865c0-1.186,0.687-2.071,1.543-2.071c0.727,0,1.079,0.546,1.079,1.202
	c0,0.73-0.468,1.824-0.707,2.838c-0.2,0.849,0.426,1.541,1.263,1.541c1.516,0,2.537-1.947,2.537-4.254
	c0-1.753-1.182-3.066-3.329-3.066c-2.427,0-3.939,1.811-3.939,3.832c0,0.696,0.206,1.189,0.527,1.569
	c0.149,0.175,0.169,0.245,0.116,0.446c-0.039,0.146-0.127,0.5-0.163,0.642c-0.054,0.202-0.218,0.275-0.401,0.2
	C3.109,10.289,2.59,9.063,2.59,7.688c0-2.272,1.916-4.998,5.717-4.998c3.055,0,5.065,2.211,5.065,4.584
	c0,3.139-1.745,5.482-4.316,5.482c-0.864,0-1.677-0.467-1.955-0.998c0,0-0.465,1.844-0.563,2.199
	c-0.169,0.619-0.502,1.234-0.806,1.715C6.453,15.885,7.212,16,8,16c4.418,0,8-3.583,8-8C16,3.581,12.418,0,8,0z"/>
</svg>
