<?xml version="1.0" encoding="utf-8"?>
<!-- Generator: Adobe Illustrator 16.0.0, SVG Export Plug-In . SVG Version: 6.00 Build 0)  -->
<!DOCTYPE svg PUBLIC "-//W3C//DTD SVG 1.1//EN" "http://www.w3.org/Graphics/SVG/1.1/DTD/svg11.dtd">
<svg version="1.1" id="Layer_1" xmlns="http://www.w3.org/2000/svg" xmlns:xlink="http://www.w3.org/1999/xlink" x="0px" y="0px"
	 width="26px" height="22px" viewBox="0 0 26 22" enable-background="new 0 0 26 22" xml:space="preserve">
<g>
	<g>
		<path fill-rule="evenodd" clip-rule="evenodd" fill="#FFFFFF" d="M18.5,4V1h-11v3h-7v13h3v-1h-2V5h7V2h9v3h7v11h-2v1h3V4H18.5z
			 M23.5,8h-21v1h2v12h17V9h2V8z M20.5,20h-15V9h15V20z M18.5,11h-11v1h11V11z M18.5,14h-11v1h11V14z M18.5,17h-11v1h11V17z"/>
	</g>
</g>
</svg>
