<?xml version="1.0" encoding="utf-8"?>
<!-- Generator: Adobe Illustrator 16.0.0, SVG Export Plug-In . SVG Version: 6.00 Build 0)  -->
<!DOCTYPE svg PUBLIC "-//W3C//DTD SVG 1.1//EN" "http://www.w3.org/Graphics/SVG/1.1/DTD/svg11.dtd">
<svg version="1.1" id="Layer_1" xmlns="http://www.w3.org/2000/svg" xmlns:xlink="http://www.w3.org/1999/xlink" x="0px" y="0px"
	 width="23.744px" height="23.662px" viewBox="0 0 23.744 23.662" enable-background="new 0 0 23.744 23.662" xml:space="preserve">
<path d="M17.226,14.464c-1.156,0-2.181,0.559-2.828,1.415l-5.583-3.12c0.137-0.375,0.215-0.779,0.215-1.201
	c0-0.424-0.078-0.828-0.215-1.205l5.579-3.117c0.646,0.861,1.674,1.422,2.832,1.422c1.953,0,3.543-1.59,3.543-3.544
	c0-1.955-1.59-3.545-3.543-3.545c-1.955,0-3.545,1.59-3.545,3.545c0,0.424,0.078,0.83,0.217,1.208l-5.58,3.116
	C7.672,8.574,6.645,8.013,5.484,8.013c-1.954,0-3.544,1.59-3.544,3.545c0,1.955,1.59,3.544,3.544,3.544
	c1.16,0,2.189-0.563,2.836-1.428l5.578,3.117c-0.139,0.38-0.219,0.788-0.219,1.216c0,1.955,1.59,3.546,3.545,3.546
	s3.545-1.591,3.545-3.546C20.771,16.054,19.181,14.464,17.226,14.464z M17.226,2.609c1.381,0,2.504,1.123,2.504,2.504
	c0,1.38-1.123,2.504-2.504,2.504s-2.504-1.124-2.504-2.504C14.722,3.732,15.845,2.609,17.226,2.609z M5.484,14.062
	c-1.381,0-2.504-1.123-2.504-2.503c0-1.381,1.123-2.504,2.504-2.504s2.504,1.124,2.504,2.504
	C7.988,12.938,6.865,14.062,5.484,14.062z M17.226,20.513c-1.381,0-2.504-1.123-2.504-2.504s1.123-2.504,2.504-2.504
	s2.504,1.123,2.504,2.504S18.604,20.513,17.226,20.513z"/>
</svg>
